<?xml version="1.0" encoding="UTF-8" standalone="no"?>
<svg
   width="186.28729"
   height="168.37155"
   viewBox="0 0 186.28729 168.37155"
   fill="none"
   version="1.1"
   id="svg1"
   sodipodi:docname="telephone_contact_call_phone_icon_262079.svg"
   inkscape:version="1.3.2 (091e20e, 2023-11-25, custom)"
   xmlns:inkscape="http://www.inkscape.org/namespaces/inkscape"
   xmlns:sodipodi="http://sodipodi.sourceforge.net/DTD/sodipodi-0.dtd"
   xmlns="http://www.w3.org/2000/svg"
   xmlns:svg="http://www.w3.org/2000/svg">
  <defs
     id="defs1" />
  <sodipodi:namedview
     id="namedview1"
     pagecolor="#000000"
     bordercolor="#000000"
     borderopacity="0.25"
     inkscape:showpageshadow="2"
     inkscape:pageopacity="0.0"
     inkscape:pagecheckerboard="0"
     inkscape:deskcolor="#d1d1d1"
     inkscape:zoom="2.8284271"
     inkscape:cx="49.851028"
     inkscape:cy="71.241008"
     inkscape:window-width="1920"
     inkscape:window-height="1017"
     inkscape:window-x="-8"
     inkscape:window-y="-8"
     inkscape:window-maximized="1"
     inkscape:current-layer="svg1" />
  <path
     fill-rule="evenodd"
     clip-rule="evenodd"
     d="M 73.37552,6.493613 C 73.37552,2.907406 76.63329,0 80.651638,0 111.83999,0 138.38327,9.424913 157.1382,26.372889 c 18.74909,16.940705 29.14909,40.885321 29.14909,69.001791 0,3.58621 -3.25775,6.49361 -7.27612,6.49361 -4.01836,0 -7.27612,-2.9074 -7.27612,-6.49361 0,-25.21252 -9.27074,-45.708086 -24.95028,-59.875763 -15.66985,-14.160396 -38.30731,-22.511696 -66.133132,-22.511696 -4.018348,0 -7.276118,-2.907233 -7.276118,-6.493608 z m 0,35.552432 c 0,-3.586385 3.25777,-6.493616 7.276118,-6.493616 20.815532,0 37.760142,4.709681 49.438802,15.26223 11.66119,10.538704 16.85344,25.803021 16.85344,44.560021 0,3.58621 -3.25777,6.49361 -7.27613,6.49361 -4.01836,0 -7.27612,-2.9074 -7.27612,-6.49361 0,-16.79507 -4.64507,-28.196117 -12.65463,-35.434331 -7.99401,-7.222618 -20.559391,-11.400702 -39.085362,-11.400702 -4.018348,0 -7.276118,-2.907404 -7.276118,-6.493602 z M 18.16046,39.967221 c -0.276691,0.166271 -0.412127,0.350537 -0.478482,0.531466 -9.9195802,27.060855 4.848804,59.094283 31.641609,83.018483 26.822688,23.95016 62.902523,37.26639 91.974013,29.74592 0.18819,-0.049 0.38224,-0.15238 0.56652,-0.38962 0.20181,-0.25625 0.36283,-0.64766 0.36283,-1.11691 v -15.38379 c 0,-0.68227 -0.36087,-1.32471 -0.97214,-1.73336 L 123.6369,122.87299 c -0.97018,-0.64765 -2.32834,-0.55753 -3.17821,0.21128 l -7.91641,7.15337 c -6.74059,6.09188 -17.792541,5.99316 -24.395371,-0.21644 L 41.476248,86.12606 c -6.45343,-6.06936 -6.17267,-15.65913 0.627104,-21.418534 l 6.629218,-5.615668 c 0.864982,-0.734192 1.004713,-1.91865 0.329295,-2.796583 L 36.971459,40.590607 C 36.51898,40.003052 35.771384,39.651851 34.972369,39.651851 H 19.39837 c -0.510879,0 -0.942599,0.136836 -1.23791,0.315322 z M 3.8511498,36.460674 C 6.1502088,30.188363 12.782341,26.664667 19.39837,26.664667 h 15.573999 c 5.592521,0 10.826282,2.457878 13.993238,6.571707 l 12.090968,15.704843 c 4.726568,6.141914 3.750595,14.439875 -2.305074,19.568964 l -6.629615,5.615689 c -0.971273,0.82421 -1.011444,2.19396 -0.08903,3.05977 l 46.670003,43.89509 c 0.94489,0.88658 2.522381,0.90044 3.486701,0.0313 l 7.91448,-7.15336 c 5.9606,-5.38537 15.46224,-6.01914 22.25328,-1.484 l 17.61791,11.76815 c 4.28224,2.86066 6.80462,7.35596 6.80462,12.13006 v 15.3838 c 0,6.01395 -4.11148,12.08851 -11.4303,13.98118 C 109.03665,175.1301 67.70636,158.30212 39.031277,132.69825 10.326118,107.06665 -8.4912807,70.13272 3.8515378,36.460674 Z"
     fill="#000000"
     id="path1"
     inkscape:label="path1"
     sodipodi:nodetypes="sscssscsssscssscsscccccssccccccccccssccssccccccccccsscccc"
     style="display:inline;fill:#ffffff;fill-opacity:1;fill-rule:evenodd;stroke-width:0;stroke-dasharray:none" />
</svg>
