<?xml version="1.0" encoding="UTF-8" standalone="no"?>
<svg
   width="19.748281"
   height="15.87302"
   viewBox="0 0 19.748281 15.87302"
   fill="none"
   version="1.1"
   id="svg1"
   sodipodi:docname="product.svg"
   inkscape:version="1.3.2 (091e20e, 2023-11-25, custom)"
   xmlns:inkscape="http://www.inkscape.org/namespaces/inkscape"
   xmlns:sodipodi="http://sodipodi.sourceforge.net/DTD/sodipodi-0.dtd"
   xmlns="http://www.w3.org/2000/svg"
   xmlns:svg="http://www.w3.org/2000/svg">
  <defs
     id="defs1" />
  <sodipodi:namedview
     id="namedview1"
     pagecolor="#000000"
     bordercolor="#000000"
     borderopacity="0.25"
     inkscape:showpageshadow="2"
     inkscape:pageopacity="0.0"
     inkscape:pagecheckerboard="0"
     inkscape:deskcolor="#d1d1d1"
     inkscape:zoom="34.208333"
     inkscape:cx="9.8514007"
     inkscape:cy="7.9366626"
     inkscape:window-width="1920"
     inkscape:window-height="1017"
     inkscape:window-x="-8"
     inkscape:window-y="-8"
     inkscape:window-maximized="1"
     inkscape:current-layer="svg1" />
  <path
     fill-rule="evenodd"
     clip-rule="evenodd"
     d="M 0,0.375 C 0,0.16789 0.1679,0 0.375,0 h 1.71034 c 0.48325,0 0.875,0.39175 0.875,0.875 v 7.97252 c 0,0.0691 0.05597,0.125 0.125,0.125 h 11.97797 c 0.0481,0 0.092,-0.0276 0.1128,-0.0711 l 3.8089,-7.97254 C 19.02471,0.84592 18.96421,0.75 18.87221,0.75 h -3.4937 c -0.2071,0 -0.375,-0.1679 -0.375,-0.375 0,-0.20711 0.1679,-0.375 0.375,-0.375 h 3.4937 c 0.6436,0 1.067,0.67146 0.7895,1.2522 l -3.8089,7.97252 c -0.1453,0.3042 -0.4524,0.4978 -0.7895,0.4978 H 3.08534 c -0.48325,0 -0.875,-0.3917 -0.875,-0.875 V 0.875 c 0,-0.06904 -0.05596,-0.125 -0.125,-0.125 H 0.375 C 0.1679,0.75 0,0.5821 0,0.375 Z m 4.32333,14.74802 c 0.96945,0 1.75685,-0.787 1.75685,-1.7598 0,-0.9727 -0.7874,-1.7598 -1.75685,-1.7598 -0.96946,0 -1.75686,0.7871 -1.75686,1.7598 0,0.9728 0.7874,1.7598 1.75686,1.7598 z m 0,0.75 c 1.3845,0 2.50685,-1.1237 2.50685,-2.5098 0,-1.3861 -1.12235,-2.5098 -2.50685,-2.5098 -1.3845,0 -2.50686,1.1237 -2.50686,2.5098 0,1.3861 1.12236,2.5098 2.50686,2.5098 z m 10.78148,-2.5098 c 0,0.9728 -0.7874,1.7598 -1.7568,1.7598 -0.9695,0 -1.7569,-0.787 -1.7569,-1.7598 0,-0.9727 0.7874,-1.7598 1.7569,-1.7598 0.9694,0 1.7568,0.7871 1.7568,1.7598 z m 0.75,0 c 0,1.3861 -1.1223,2.5098 -2.5068,2.5098 -1.3845,0 -2.5069,-1.1237 -2.5069,-2.5098 0,-1.3861 1.1224,-2.5098 2.5069,-2.5098 1.3845,0 2.5068,1.1237 2.5068,2.5098 z"
     fill="#000000"
     id="path1"
     style="fill:#ffffff" />
</svg>
